<svg xmlns="http://www.w3.org/2000/svg" width="512" height="100" viewBox="0 0 261.559 53.659" role="img" aria-label="Altair Engineering">
	<g transform="translate(-0.002)">
        	<path d="M60.426,39.472a91,91,0,0,1-21.7-37.536A2.608,2.608,0,0,0,36.2,0H24.975a2.652,2.652,0,0,0-2.532,1.936A91,91,0,0,1,.746,39.472a2.7,2.7,0,0,0-.4,3.178l5.611,9.682a2.67,2.67,0,0,0,2.929,1.241,91.744,91.744,0,0,1,21.7-2.631,89.237,89.237,0,0,1,21.7,2.631,2.6,2.6,0,0,0,2.929-1.241l5.611-9.682A2.716,2.716,0,0,0,60.426,39.472ZM48.013,47.615,8.541,39.224a.345.345,0,0,1-.2-.546L35.353,8.689a.328.328,0,0,1,.546.1l12.512,38.38A.362.362,0,0,1,48.013,47.615Z" transform="translate(0)" fill="#fa4616"></path>
                 <g transform="translate(76.612 8.937)">
                	<path d="M169.94,18,154.3,53.749h7.3l3.575-8.341h15.69l3.525,8.341h7.448L176.2,18Zm-2.185,21.052,5.213-12.115,5.263,12.115Z" transform="translate(-154.3 -18)" fill="#005776"></path>
			<path d="M247.65,18.5H240.6V54h25.223V47.5H247.65Z" transform="translate(-197.751 -18.252)" fill="#005776"></path>
			<path d="M359.04,18,343.4,53.749h7.249l3.575-8.341h15.69l3.525,8.341h7.448L365.246,18Zm-2.185,21.052,5.213-12.115,5.263,12.115Z" transform="translate(-249.51 -18)" fill="#005776"></path>
			<rect width="7.001" height="35.5" transform="translate(137.284 0.248)" fill="#005776"></rect>
			<path d="M486.151,40.694a10.759,10.759,0,0,0,7.944-10.774c0-7.05-5.114-11.42-13.306-11.42H464.9V54h7V41.935h6.852L487.293,54h8.341ZM471.9,25h8.341c4.32,0,6.7,1.887,6.7,5.313,0,3.277-2.532,5.362-6.653,5.362H471.9Z" transform="translate(-310.685 -18.252)" fill="#005776"></path>
			<path d="M287.1,18.5v6.753h10.923V54h7.2V25.253h10.923V18.5Z" transform="translate(-221.164 -18.252)" fill="#005776"></path>
		</g>
	</g>
</svg>
