<?xml version="1.0" encoding="UTF-8" standalone="no"?>
<!-- Created with Inkscape (http://www.inkscape.org/) -->
<svg
xmlns:dc="http://purl.org/dc/elements/1.1/"
xmlns:cc="http://creativecommons.org/ns#"
xmlns:rdf="http://www.w3.org/1999/02/22-rdf-syntax-ns#"
xmlns:svg="http://www.w3.org/2000/svg"
xmlns="http://www.w3.org/2000/svg"
xmlns:sodipodi="http://sodipodi.sourceforge.net/DTD/sodipodi-0.dtd"
xmlns:inkscape="http://www.inkscape.org/namespaces/inkscape"
width="220"
height="50"
id="svg2"
version="1.1"
inkscape:version="0.48.2 r9819"
sodipodi:docname="New document 1">
<title
id="title4047">Altium Limited logo</title>
<defs
id="defs4" />
<sodipodi:namedview
id="base"
pagecolor="#ffffff"
bordercolor="#666666"
borderopacity="1.0"
inkscape:pageopacity="0.0"
inkscape:pageshadow="2"
inkscape:zoom="2.4311926"
inkscape:cx="110"
inkscape:cy="25"
inkscape:document-units="px"
inkscape:current-layer="layer1"
showgrid="false"
units="px"
inkscape:window-width="1024"
inkscape:window-height="689"
inkscape:window-x="0"
inkscape:window-y="27"
inkscape:window-maximized="1"
fit-margin-top="0"
fit-margin-left="0"
fit-margin-right="0"
fit-margin-bottom="0" />
<metadata
id="metadata7">
<rdf:RDF>
<cc:Work
rdf:about="">
<dc:format>image/svg+xml</dc:format>
<dc:type
rdf:resource="http://purl.org/dc/dcmitype/StillImage" />
<dc:title>Altium Limited logo</dc:title>
<dc:description>Derived from logo hosted at BrandsOfTheWorld.com</dc:description>
<dc:creator>
<cc:Agent>
<dc:title>Altium Limited</dc:title>
</cc:Agent>
</dc:creator>
<dc:publisher>
<cc:Agent>
<dc:title>Altium Limited</dc:title>
</cc:Agent>
</dc:publisher>
</cc:Work>
</rdf:RDF>
</metadata>
<g
inkscape:label="Layer 1"
inkscape:groupmode="layer"
id="layer1"
transform="translate(-130.0412,-507.77312)">
<g
id="g4039"
transform="matrix(1.0227963,0,0,1.0227963,-4.4492534,-12.707569)">
<path
inkscape:connector-curvature="0"
d="m 192.03312,509.41765 13.22113,0 -11.75238,46.8755 -13.22125,0 11.7525,-46.8755"
style="fill:#000;fill-opacity:1;fill-rule:evenodd;stroke:none"
id="path3089" />
<path
inkscape:connector-curvature="0"
d="m 211.53062,509.95265 13.22125,0 -2.80475,10.8175 5.60938,0 -2.00338,8.0125 -5.60887,0 -4.14013,16.96062 c -0.53424,1.86913 0.40088,2.80425 2.53763,2.67088 l 2.27,0 -2.003,7.879 c -2.67087,0.2675 -5.2085,0.40037 -7.479,0.40037 -4.00625,0 -6.811,-0.53375 -8.27925,-1.60212 -1.603,-1.06875 -1.87013,-3.60588 -0.80175,-7.34513 l 9.48187,-37.79362"
style="fill:#000;fill-opacity:1;fill-rule:evenodd;stroke:none"
id="path3091" />
<path
inkscape:connector-curvature="0"
d="m 232.36363,520.77015 13.22124,0 -8.814,35.523 -13.22112,0 8.81388,-35.523"
style="fill:#000;fill-opacity:1;fill-rule:evenodd;stroke:none"
id="path3093" />
<path
inkscape:connector-curvature="0"
d="m 251.59475,520.77015 13.355,0 -5.87625,23.50387 c -0.80125,2.80475 0.13375,4.2735 2.5375,4.2735 2.67125,0 4.27375,-1.46875 5.075,-4.2735 l 5.875,-23.50387 13.22125,0 -8.9475,35.523 -13.22,0 1.0675,-4.2735 -0.13375,0 c -2.67125,3.47212 -6.41,5.2085 -11.2175,5.2085 -3.07125,0 -5.47625,-0.6675 -7.07875,-2.00288 -1.73575,-1.3355 -2.13613,-3.87362 -1.33488,-7.61287 l 6.67738,-26.84225"
style="fill:#000;fill-opacity:1;fill-rule:evenodd;stroke:none"
id="path3095" />
<path
inkscape:connector-curvature="0"
d="m 344.00975,521.83765 c -1.73625,-1.335 -4.14,-2.0025 -7.345,-2.0025 -2.00375,0 -4.14,0.4 -6.14375,1.20125 -2.13625,0.935 -4.00625,2.27125 -5.60875,4.27375 -0.2675,-1.73625 -1.2025,-3.205 -2.5375,-4.14 -1.335,-0.80125 -3.4725,-1.335 -6.27625,-1.335 -4.8075,0 -8.68125,1.87 -11.3525,5.34125 l -0.1325,0 1.0675,-4.27375 -13.355,0 -8.9475,35.52425 13.22125,0 5.87625,-23.50425 c 0.80125,-2.805 2.40375,-4.27375 4.94125,-4.14 2.5375,-0.13375 3.4725,1.335 2.67125,4.14 l -5.87625,23.50425 13.22125,0 5.87625,-23.50425 c 0.80125,-2.805 2.40375,-4.27375 5.075,-4.14 2.5375,-0.13375 3.4725,1.335 2.67,4.14 l -5.875,23.50425 5.875,0 c 4.14,0 8.14625,-2.80475 8.94875,-6.544 l 5.2075,-20.299 c 0.80125,-3.73875 0.40125,-6.27625 -1.20125,-7.74625"
style="fill:#000;fill-opacity:1;fill-rule:evenodd;stroke:none"
id="path3097" />
<path
inkscape:connector-curvature="0"
d="m 177.4765,556.29315 -1.73638,-46.8755 -7.87937,0 c -6.67725,0.2675 -12.15288,3.87375 -15.22463,9.34875 l -20.16551,37.52675 15.22464,-0.13338 3.6055,-8.01262 11.352,0 -0.40088,8.146 15.22463,0 z m -22.30275,-17.09425 9.0815,-19.4975 -1.06888,19.4975 -8.01262,0"
style="fill:#000;fill-opacity:1;fill-rule:evenodd;stroke:none"
id="path3099" />
</g>
</g>
</svg>
